<svg width="24" height="24" viewBox="0 0 24 24" fill="none" xmlns="http://www.w3.org/2000/svg">
<path d="M20.4897 15C20.1682 15 19.8834 15.2007 19.7511 15.4937C18.4185 18.4456 15.4492 20.5 12 20.5C7.30558 20.5 3.5 16.6944 3.5 12C3.5 7.30558 7.30558 3.5 12 3.5C14.6799 3.5 17.0702 4.74022 18.6281 6.67802C18.7878 6.87661 19.0253 7 19.2801 7C19.8941 7 20.2674 6.33922 19.8898 5.85511C18.0598 3.50881 15.2061 2 12 2C6.47715 2 2 6.47715 2 12C2 17.5228 6.47715 22 12 22C16.1062 22 19.6343 19.5252 21.1741 15.9857C21.3823 15.5073 21.0114 15 20.4897 15Z" fill="url(#paint0_angular_105_268)"/>
<defs>
<radialGradient id="paint0_angular_105_268" cx="0" cy="0" r="1" gradientUnits="userSpaceOnUse" gradientTransform="translate(11.7711 12) rotate(-180) scale(9.7711 9.54744)">
<stop stop-color="#0066FF" stop-opacity="0.5"/>
<stop offset="0.4" stop-color="#0066FF"/>
<stop offset="0.549731" stop-color="white" stop-opacity="0"/>
</radialGradient>
</defs>
</svg>
